<svg width="22" height="22" viewBox="0 0 22 22" fill="none" xmlns="http://www.w3.org/2000/svg">
<path fill-rule="evenodd" clip-rule="evenodd" d="M4 0C2.93913 0 1.92172 0.421427 1.17157 1.17157C0.421427 1.92172 0 2.93913 0 4V18C0 19.0609 0.421427 20.0783 1.17157 20.8284C1.92172 21.5786 2.93913 22 4 22H18C19.0609 22 20.0783 21.5786 20.8284 20.8284C21.5786 20.0783 22 19.0609 22 18V4C22 2.93913 21.5786 1.92172 20.8284 1.17157C20.0783 0.421427 19.0609 0 18 0H4ZM11.023 19L16.818 15.25L18.182 4H3.864L5.227 15.25L11.023 19ZM9.706 8.099C9.74977 8.14994 9.78307 8.209 9.80399 8.27281C9.82492 8.33663 9.83306 8.40394 9.82795 8.4709C9.82284 8.53786 9.80458 8.60316 9.77422 8.66306C9.74386 8.72296 9.70199 8.77629 9.651 8.82L7.749 10.45L9.533 11.79L11.961 8.148C11.9996 8.09017 12.0495 8.04082 12.1078 8.00297C12.1661 7.96512 12.2316 7.93956 12.3001 7.92786C12.3686 7.91616 12.4388 7.91857 12.5063 7.93492C12.5739 7.95128 12.6374 7.98125 12.693 8.023L15.421 10.068C15.4825 10.1139 15.5329 10.173 15.5684 10.241C15.6039 10.3091 15.6236 10.3843 15.626 10.461C15.6284 10.5377 15.6135 10.6139 15.5823 10.6841C15.5511 10.7542 15.5045 10.8164 15.446 10.866L13.06 12.91C12.957 12.9982 12.8231 13.0418 12.6879 13.0313C12.5527 13.0208 12.4272 12.957 12.339 12.854C12.2508 12.751 12.2072 12.6171 12.2177 12.4819C12.2282 12.3467 12.292 12.2212 12.395 12.133L14.297 10.503L12.512 9.164L10.085 12.805C10.0465 12.8631 9.99655 12.9126 9.9382 12.9507C9.87985 12.9887 9.81434 13.0144 9.7457 13.0262C9.67705 13.038 9.60671 13.0357 9.53901 13.0193C9.47131 13.0029 9.40767 12.9729 9.352 12.931L6.625 10.885C6.5639 10.839 6.51389 10.7799 6.47864 10.712C6.44339 10.6441 6.4238 10.5692 6.42131 10.4927C6.41881 10.4163 6.43348 10.3402 6.46423 10.2702C6.49498 10.2002 6.54103 10.1379 6.599 10.088L8.985 8.043C9.03593 7.99923 9.095 7.96593 9.15881 7.94501C9.22263 7.92408 9.28994 7.91594 9.3569 7.92105C9.42386 7.92616 9.48916 7.94442 9.54906 7.97478C9.60896 8.00514 9.66229 8.04701 9.706 8.098V8.099Z" fill="#18232E"/>
</svg>
