<svg width="22" height="32" viewBox="0 0 22 32" fill="none" xmlns="http://www.w3.org/2000/svg">
<path d="M11.4286 10.6667H5.33333C2.38781 10.6667 0 8.27886 0 5.33333C0 2.38781 2.38781 0 5.33333 0H11.4286V10.6667Z" fill="#E64A19"/>
<path d="M10.6667 21.3333H5.33333C2.38781 21.3333 0 18.9455 0 16C0 13.0544 2.38781 10.6666 5.33333 10.6666H10.6667V21.3333Z" fill="#7C4DFF"/>
<path d="M5.33333 32C2.38781 32 0 29.6122 0 26.6667C0 23.7212 2.38781 21.3334 5.33333 21.3334H10.6667V26.6667C10.6667 29.6122 8.27886 32 5.33333 32Z" fill="#66BB6A"/>
<path d="M16.0001 10.6667H10.6667V0H16.0001C18.9456 0 21.3334 2.38781 21.3334 5.33333C21.3334 8.27886 18.9456 10.6667 16.0001 10.6667Z" fill="#FF7043"/>
<path d="M16.0001 21.3333C18.9456 21.3333 21.3334 18.9455 21.3334 16C21.3334 13.0544 18.9456 10.6666 16.0001 10.6666C13.0546 10.6666 10.6667 13.0544 10.6667 16C10.6667 18.9455 13.0546 21.3333 16.0001 21.3333Z" fill="#29B6F6"/>
</svg>
