<svg width="58" height="48" viewBox="0 0 58 48" fill="none" xmlns="http://www.w3.org/2000/svg">
<path d="M47.2349 0.0939484C47.0193 0.155827 46.9059 0.378588 46.6336 1.22013C46.4408 1.80178 46.248 2.33394 46.1799 2.42056C46.1232 2.49482 45.7488 2.7052 45.3405 2.87846L44.5918 3.2126L43.5709 2.69283C42.652 2.23493 42.5272 2.1978 42.2663 2.34631C41.926 2.54432 40.6442 4.01702 40.6442 4.21503C40.6442 4.28928 40.8484 4.84619 41.0979 5.44022L41.563 6.51689L41.2568 7.33369C41.0979 7.77921 40.9051 8.1876 40.837 8.24948C40.7576 8.32374 40.2699 8.53412 39.7367 8.74451C38.6477 9.1529 38.6364 9.17765 38.6137 10.5142C38.591 12.0117 38.6137 12.0488 39.646 12.4324C40.735 12.8285 41.0072 13.076 41.3021 13.967C41.5517 14.7343 41.529 14.9076 40.9959 16.0337C40.803 16.4545 40.6442 16.8753 40.6442 16.9495C40.6442 17.1723 41.2794 17.9891 41.9033 18.5584L42.4705 19.0781L43.5028 18.546L44.5237 18.0138L45.1476 18.2366C46.0665 18.5831 46.2593 18.7935 46.5883 19.8826C46.7584 20.4023 46.9286 20.8974 46.974 20.9716C47.0534 21.1201 47.9155 21.1944 49.0385 21.1696L49.6737 21.1449L50.0481 19.9568L50.4338 18.7688L51.1711 18.4099C51.5681 18.2119 51.9651 18.051 52.0559 18.051C52.1353 18.051 52.6571 18.2737 53.1903 18.546C53.7348 18.8183 54.1998 19.041 54.2225 19.041C54.3246 19.041 55.8674 17.3703 55.9695 17.1599C56.0375 17.0114 55.9468 16.6649 55.6178 15.9347C55.3682 15.3655 55.1641 14.8086 55.1641 14.6848C55.1641 14.561 55.3115 14.1031 55.493 13.67L55.8106 12.8903L56.911 12.4819L58 12.0735V10.6132V9.16528L56.979 8.75688C55.8333 8.31136 55.6518 8.1381 55.3342 7.1233L55.13 6.44264L55.6178 5.32884L56.1056 4.21503L55.6291 3.59625C55.13 2.95272 54.3473 2.21018 54.1658 2.21018C54.0978 2.21018 53.6213 2.43294 53.0995 2.7052L52.1353 3.2126L51.466 2.95272C50.6039 2.6062 50.377 2.32156 50.014 1.12113C49.7191 0.155827 49.6964 0.131077 49.2881 0.0568218C48.7549 -0.0298061 47.5865 -0.0174313 47.2349 0.0939484ZM49.912 6.31888C50.7174 6.64065 51.6816 7.61832 52.1353 8.57125C52.4756 9.27666 52.4983 9.41279 52.4983 10.5637C52.4983 11.7147 52.4756 11.8632 52.1353 12.6181C51.6929 13.5957 50.9783 14.3507 50.0821 14.8086C49.5149 15.1056 49.2994 15.1427 48.3012 15.1427C47.2916 15.1303 47.0987 15.0932 46.5089 14.7838C44.83 13.8804 43.8091 11.7023 44.1721 9.78406C44.7166 6.86341 47.3483 5.27933 49.912 6.31888Z" fill="#EA5313"/>
<path d="M4.75294 7.66782L4.45801 7.91533V25.2412V42.5547H27.8259H51.1938V32.3943C51.1938 22.6918 51.1824 22.2463 51.0009 22.4938C50.74 22.8403 50.0708 23.0012 48.6415 23.0631L47.5071 23.1126L47.4731 30.7855L47.4504 38.4707H27.8259H8.20141V24.9813V11.4919H22.5284H36.8668L36.9348 10.0316C37.0142 8.36085 37.1504 7.84108 37.5701 7.59356C37.831 7.44506 35.7891 7.4203 21.4621 7.40793H5.05922L4.75294 7.66782Z" fill="#EA5313"/>
<path d="M18.8869 13.6825C18.5466 14.0166 13.873 22.9518 13.873 23.2736C13.8844 23.88 14.4743 24.3008 15.0301 24.0904C15.2797 23.9914 15.7901 23.1251 17.7753 19.3505C19.4995 16.1081 20.2255 14.623 20.2255 14.3632C20.2255 13.6578 19.3747 13.2246 18.8869 13.6825Z" fill="#EA5313"/>
<path d="M12.3762 15.7244C12.2854 15.811 11.7069 16.4546 11.1057 17.1476C9.64236 18.8431 9.64236 18.7936 11.2191 20.6252C12.3308 21.9122 12.4442 22.0112 12.8413 22.0112C13.3631 22.0112 13.6467 21.7142 13.6467 21.1573C13.6467 20.8232 13.4992 20.5633 12.8413 19.7589L12.0245 18.7812L12.8413 17.8778C13.5332 17.0857 13.6467 16.9001 13.6467 16.5165C13.6467 15.7739 12.8753 15.2913 12.3762 15.7244Z" fill="#EA5313"/>
<path d="M20.7364 15.8851C20.2486 16.4049 20.3507 16.7762 21.2469 17.8281C21.6893 18.3479 22.0409 18.8182 22.0409 18.8677C22.0409 18.9172 21.6893 19.3627 21.2469 19.8577C20.4301 20.7735 20.3054 21.1077 20.5663 21.6398C20.7251 21.9616 21.2582 22.1348 21.5985 21.9616C21.9502 21.7883 24.0261 19.4246 24.1282 19.0904C24.2529 18.6573 24.0374 18.2984 22.8123 16.8999C21.5191 15.4396 21.2582 15.3035 20.7364 15.8851Z" fill="#EA5313"/>
<path d="M30.7071 22.4071C30.571 22.469 30.4008 22.667 30.3328 22.8279C30.242 23.0383 30.208 25.0679 30.208 29.4365V35.7357L30.4803 36.0822L30.7525 36.4287H38.296C45.5559 36.4287 45.8509 36.4163 46.0778 36.1936C46.384 35.8842 46.4067 35.1293 46.1004 34.8323C45.987 34.7209 45.7034 34.5847 45.4765 34.5476L45.0682 34.4734V33.013C45.0682 31.6641 45.0455 31.528 44.8073 31.2186C44.4556 30.7854 43.8771 30.7483 43.5708 31.1567C43.4007 31.4042 43.3666 31.6765 43.3666 32.9759C43.3666 34.4239 43.3553 34.5105 43.1398 34.5105C42.9242 34.5105 42.9129 34.4239 42.9129 31.6022C42.9129 28.5331 42.8675 28.1989 42.3797 27.9638C41.994 27.7658 41.8466 27.7905 41.5063 28.0875L41.2113 28.3351V31.429C41.2113 34.3867 41.2 34.5105 40.9958 34.5105C40.7916 34.5105 40.7689 34.3867 40.7349 32.8274C40.7009 31.231 40.6895 31.1319 40.4286 30.9092C40.0883 30.5998 39.5665 30.6122 39.2829 30.9216C39.0787 31.1443 39.056 31.33 39.056 32.8398C39.056 34.4115 39.0447 34.5105 38.8292 34.5105C38.6136 34.5105 38.6136 34.3867 38.5796 30.5379L38.5456 26.5653L38.228 26.2683C37.8309 25.8971 37.5587 25.8971 37.1617 26.2683L36.844 26.5653L36.81 30.5379C36.776 33.8298 36.7533 34.5105 36.6172 34.5105C36.4924 34.5105 36.4584 34.0278 36.4243 31.924C36.3903 29.585 36.3676 29.3127 36.1748 29.0776C36.0273 28.9043 35.8231 28.8177 35.5395 28.8177C35.2559 28.8177 35.0517 28.9043 34.9043 29.0776C34.7114 29.3127 34.6887 29.585 34.6547 31.924C34.6207 34.3867 34.6093 34.5105 34.3938 34.5105C34.1896 34.5105 34.1783 34.4115 34.1783 33.211C34.1783 32.0725 34.1442 31.8745 33.9514 31.6641C33.6678 31.3547 33.146 31.3423 32.8057 31.6517C32.5561 31.8745 32.5335 31.9982 32.4994 33.1987C32.454 34.4857 32.454 34.5105 32.1818 34.5105H31.9096V28.6444V22.766L31.6146 22.5185C31.2857 22.2339 31.0701 22.2091 30.7071 22.4071Z" fill="#EA5313"/>
<path d="M10.3116 28.0876C9.69901 28.6198 10.096 29.6841 10.9128 29.6841C11.3552 29.6841 11.8316 29.2138 11.8316 28.7559C11.8316 28.3228 11.3552 27.8277 10.9468 27.8277C10.7653 27.8277 10.4817 27.9391 10.3116 28.0876Z" fill="#EA5313"/>
<path d="M13.6352 28.0629C13.4423 28.2238 13.3743 28.4218 13.3743 28.7559C13.3743 29.0901 13.4423 29.2881 13.6352 29.4489C13.8847 29.6717 14.191 29.6841 19.3751 29.6841C22.3925 29.6841 24.9448 29.647 25.0469 29.6098C25.3418 29.4861 25.5573 28.8302 25.4326 28.4589C25.2057 27.8277 25.3191 27.8401 19.4204 27.8277C14.191 27.8277 13.8847 27.8401 13.6352 28.0629Z" fill="#EA5313"/>
<path d="M10.3 31.4784C9.71009 32.1096 10.0731 33.0254 10.9125 33.0254C11.854 33.0254 12.183 31.8126 11.3663 31.3547C10.9125 31.0948 10.6176 31.1195 10.3 31.4784Z" fill="#EA5313"/>
<path d="M13.8053 31.3176C13.5557 31.4413 13.3062 31.8992 13.3062 32.2086C13.3062 32.2952 13.4082 32.518 13.5444 32.7036L13.7712 33.0254H19.375C24.5364 33.0254 24.9788 33.013 25.2056 32.8026C25.58 32.4809 25.5573 31.825 25.1716 31.4537L24.8653 31.169L19.4544 31.1814C15.9719 31.1814 13.9527 31.2309 13.8053 31.3176Z" fill="#EA5313"/>
<path d="M10.6178 34.5973C10.2888 34.6592 10.0166 35.0923 10.0166 35.5131C10.0166 36.3794 11.0375 36.7507 11.5593 36.07C11.8996 35.6492 11.8996 35.3522 11.582 34.9562C11.2984 34.622 11.0035 34.523 10.6178 34.5973Z" fill="#EA5313"/>
<path d="M13.8732 34.6715C13.7257 34.7582 13.5215 34.9809 13.4194 35.1666C13.272 35.4636 13.272 35.5378 13.4194 35.8348C13.7597 36.4907 13.7257 36.4907 19.5563 36.466C24.695 36.4289 24.9786 36.4165 25.2055 36.1937C25.3643 36.0328 25.4437 35.8101 25.4437 35.5007C25.4437 35.1913 25.3643 34.9685 25.2055 34.8077C24.9786 34.5849 24.695 34.5725 19.5563 34.5354C15.3819 34.523 14.0887 34.5478 13.8732 34.6715Z" fill="#EA5313"/>
<path d="M0.0680618 45.6115C0.136124 46.8862 0.24956 47.1708 0.87346 47.6782L1.17974 47.9381L27.2247 47.9752L53.2697 48L53.7575 47.7401C54.4494 47.3812 54.7104 46.7501 54.7104 45.4259V44.4111H27.3608H0L0.0680618 45.6115Z" fill="#EA5313"/>
</svg>
