<svg width="14" height="14" viewBox="0 0 14 14" fill="none" xmlns="http://www.w3.org/2000/svg">
<path d="M12.3333 0H1.66667C0.746667 0 0 0.746667 0 1.66667V12.3333C0 13.2533 0.746667 14 1.66667 14H12.3333C13.2533 14 14 13.2533 14 12.3333V1.66667C14 0.746667 13.2533 0 12.3333 0ZM4.33333 5.33333V11.6667H2.33333V5.33333H4.33333ZM2.33333 3.49C2.33333 3.02333 2.73333 2.66667 3.33333 2.66667C3.93333 2.66667 4.31 3.02333 4.33333 3.49C4.33333 3.95667 3.96 4.33333 3.33333 4.33333C2.73333 4.33333 2.33333 3.95667 2.33333 3.49ZM11.6667 11.6667H9.66667C9.66667 11.6667 9.66667 8.58 9.66667 8.33333C9.66667 7.66667 9.33333 7 8.5 6.98667H8.47333C7.66667 6.98667 7.33333 7.67333 7.33333 8.33333C7.33333 8.63667 7.33333 11.6667 7.33333 11.6667H5.33333V5.33333H7.33333V6.18667C7.33333 6.18667 7.97667 5.33333 9.27 5.33333C10.5933 5.33333 11.6667 6.24333 11.6667 8.08667V11.6667Z" fill="white"/>
</svg>
