<svg width="32" height="33" viewBox="0 0 32 33" fill="none" xmlns="http://www.w3.org/2000/svg">
<path d="M9.7898 32.1304C9.1054 32.1304 8.4822 31.9562 7.937 31.6131C7.025 31.0383 6.3946 30.048 6.0626 28.6706C5.6766 27.0673 5.7226 24.9378 6.1954 22.5021C2.3826 21.0446 0.200195 18.8084 0.200195 16.35C0.200195 13.8911 2.3822 11.6554 6.195 10.1984C5.7222 7.76218 5.6758 5.63267 6.0618 4.02942C6.3938 2.65153 7.0242 1.66123 7.9358 1.08696C8.4806 0.743817 9.1042 0.56958 9.7886 0.56958C11.5438 0.56958 13.745 1.78301 16.001 3.9912C18.257 1.78524 20.4574 0.572691 22.2106 0.572691C22.895 0.572691 23.5182 0.746928 24.0634 1.09007C24.9742 1.66389 25.605 2.65242 25.937 4.02853C26.3234 5.63133 26.277 7.76129 25.8038 10.1979C29.6174 11.6549 31.8002 13.8911 31.8002 16.35C31.8002 18.8089 29.6174 21.0451 25.8038 22.5025C26.2766 24.9387 26.323 27.0682 25.9366 28.671C25.6046 30.0476 24.9746 31.0361 24.0646 31.6099C23.519 31.9531 22.8954 32.1273 22.2114 32.1273C20.457 32.1273 18.2558 30.9148 16.0006 28.7097C13.7446 30.9174 11.5438 32.1304 9.7898 32.1304ZM7.735 23.0199C7.3386 25.1165 7.2942 26.9078 7.6086 28.211C7.8254 29.1115 8.201 29.736 8.7262 30.0667C9.0274 30.2565 9.3854 30.3529 9.7898 30.3529C11.1474 30.3529 12.9346 29.3386 14.8382 27.4918C13.8842 26.4242 12.953 25.2156 12.067 23.8955C10.5346 23.7106 9.0786 23.4164 7.735 23.0199ZM17.1626 27.4909C19.0658 29.336 20.8534 30.3494 22.211 30.3498C22.6154 30.3498 22.9734 30.2534 23.2754 30.0636C23.799 29.7338 24.1738 29.1106 24.3902 28.2114C24.7046 26.9073 24.6606 25.1165 24.2642 23.0203C22.9194 23.4168 21.463 23.7111 19.931 23.896C19.0454 25.2161 18.1154 26.4242 17.1626 27.4909ZM14.2266 24.0809C14.8074 24.8703 15.4018 25.6068 16.0002 26.2766C16.597 25.6072 17.1918 24.8707 17.7722 24.0809C17.1758 24.1124 16.5818 24.1284 16.0002 24.1284C15.4182 24.1284 14.8238 24.1124 14.2266 24.0809ZM12.9398 22.2078C13.9378 22.3025 14.967 22.3505 16.0002 22.3505C17.0342 22.3505 18.0622 22.3025 19.0586 22.2083C19.653 21.282 20.2198 20.3112 20.7442 19.3214C21.2514 18.3635 21.7286 17.3639 22.163 16.3496C21.7298 15.3379 21.253 14.3387 20.7446 13.3786C20.2214 12.391 19.6546 11.4203 19.0586 10.4917C18.063 10.3975 17.035 10.3495 16.0002 10.3495C14.965 10.3495 13.9366 10.3975 12.9414 10.4922C12.3454 11.4194 11.7778 12.3901 11.2538 13.3791C10.7458 14.3387 10.269 15.3379 9.8354 16.3509C10.2682 17.3616 10.745 18.3608 11.2534 19.3218C11.775 20.3063 12.3418 21.2766 12.9398 22.2078ZM22.9966 18.4742C22.7142 19.0725 22.4214 19.6592 22.1226 20.2228C21.8214 20.7926 21.501 21.3642 21.1682 21.9278C22.1178 21.7651 23.0262 21.5567 23.8766 21.3055C23.6406 20.3948 23.345 19.4449 22.9966 18.4742ZM8.1218 21.3051C8.9726 21.5558 9.8806 21.7647 10.829 21.9274C10.4942 21.3602 10.1738 20.7882 9.8746 20.2228C9.5766 19.6596 9.2834 19.0738 9.0014 18.4755C8.6546 19.4418 8.3594 20.3908 8.1218 21.3051ZM23.9266 16.35C24.5378 17.8572 25.0358 19.3471 25.4098 20.7846C28.3706 19.6272 30.2002 17.9386 30.2002 16.35C30.2002 14.7614 28.3706 13.0728 25.4098 11.9154C25.0366 13.3529 24.5382 14.8428 23.9266 16.35ZM6.589 11.9163C3.6294 13.0733 1.8002 14.7619 1.8002 16.35C1.8002 17.9386 3.6294 19.6272 6.5898 20.7842C6.9634 19.3463 7.4614 17.8564 8.0718 16.3509C7.461 14.845 6.963 13.3551 6.589 11.9163ZM8.1214 11.3949C8.359 12.3079 8.6542 13.2573 9.0014 14.2254C9.283 13.6289 9.5758 13.0426 9.875 12.4777C10.1758 11.9092 10.4962 11.3376 10.8302 10.7727C9.8806 10.9349 8.9726 11.1438 8.1214 11.3949ZM21.169 10.7722C21.5038 11.3398 21.8242 11.9114 22.1234 12.4777C22.4218 13.0408 22.715 13.6271 22.9974 14.2254C23.345 13.2577 23.6402 12.3083 23.8778 11.3945C23.0258 11.1433 22.1178 10.9344 21.169 10.7722ZM9.7886 2.34751C9.3842 2.34751 9.0266 2.44351 8.7258 2.63375C8.201 2.96445 7.825 3.58894 7.6078 4.48946C7.2938 5.79402 7.3378 7.58483 7.7346 9.68056C9.0786 9.28408 10.5354 8.98939 12.0682 8.80449C12.955 7.48393 13.8862 6.27628 14.839 5.20952C12.935 3.36181 11.1466 2.34751 9.7886 2.34751ZM19.9314 8.80404C21.4634 8.98895 22.9198 9.28319 24.2646 9.67967C24.6614 7.5835 24.7058 5.79224 24.391 4.48813C24.1742 3.58939 23.799 2.96622 23.275 2.63642C22.9734 2.44663 22.6154 2.35017 22.2106 2.35017C20.8534 2.35017 19.0666 3.36403 17.163 5.20952C18.115 6.27583 19.0454 7.48393 19.9314 8.80404ZM16.0002 8.57158C16.5818 8.57158 17.1758 8.58758 17.7726 8.61914C17.1926 7.83063 16.5982 7.09457 16.001 6.42429C15.4022 7.09546 14.8082 7.83152 14.2282 8.61914C14.8246 8.58758 15.4186 8.57158 16.0002 8.57158Z" fill="#8BB7F0"/>
<path d="M9.7884 0.79179C11.586 0.79179 13.7868 2.08523 16.0012 4.28853C18.2152 2.08701 20.4148 0.794902 22.2108 0.794902C22.86 0.794902 23.4504 0.95936 23.9652 1.28339C24.8276 1.82654 25.426 2.76929 25.7436 4.08629C26.1744 5.82732 26.084 7.97105 25.57 10.3446C29.2588 11.714 31.6 13.8747 31.6 16.35C31.6 18.8253 29.2588 20.9859 25.5696 22.3558C26.106 24.9218 26.196 27.1233 25.7432 28.6137C25.4256 29.9302 24.8276 30.8734 23.966 31.4166C23.4504 31.741 22.982 31.9068 22.3332 31.9068C22.3328 31.9068 22.1668 31.9068 22.1664 31.9068C20.3696 31.9068 18.2136 30.6134 16 28.4128C13.786 30.6156 11.586 31.9082 9.7892 31.9082C9.14 31.9082 8.5496 31.7437 8.0348 31.4197C7.1716 30.8752 6.5728 29.9311 6.2556 28.6132C5.7796 26.9611 5.8756 24.7893 6.4292 22.3554C2.7408 20.9855 0.4 18.8253 0.4 16.35C0.4 13.8751 2.7408 11.7145 6.4288 10.3446C6.154 8.98492 5.9784 7.72259 5.9724 6.57138C5.9676 5.66197 6.0792 4.81612 6.2552 4.08673C6.5728 2.7684 7.1712 1.82432 8.0344 1.28028C8.5488 0.955804 9.1392 0.79179 9.7884 0.79179ZM7.5832 9.95566C8.974 9.53119 10.5184 9.21027 12.1764 9.0147C13.1292 7.58791 14.1264 6.30514 15.1308 5.19927C13.182 3.26755 11.2844 2.12479 9.7884 2.12479C9.3488 2.12479 8.9584 2.23058 8.6268 2.43993C8.0536 2.80129 7.646 3.47112 7.4144 4.43165C7.0712 5.85488 7.1492 7.77859 7.5832 9.95566ZM24.4156 9.95522C24.8496 7.77815 24.9276 5.85399 24.5844 4.43076C24.3532 3.47201 23.9456 2.80351 23.3736 2.44304C23.0416 2.23369 22.65 2.1279 22.2108 2.1279C20.716 2.1279 18.8196 3.26933 16.8712 5.19927C17.8752 6.30514 18.8712 7.58791 19.8232 9.01425C21.4804 9.20982 23.0248 9.53074 24.4156 9.95522ZM13.7908 8.86757C14.5116 8.82001 15.2344 8.77868 15.986 8.77868C16.7376 8.77868 17.488 8.82046 18.2088 8.86757C17.4856 7.8546 16.7432 6.92919 16.0004 6.11001C15.2576 6.92919 14.5148 7.8546 13.7908 8.86757ZM16 22.5727C17.1044 22.5727 18.1616 22.5189 19.1672 22.4207C19.7748 21.4797 20.3624 20.4805 20.916 19.4342C21.4572 18.4124 21.9468 17.3781 22.384 16.35C21.9468 15.3219 21.4572 14.288 20.9164 13.2666C20.3624 12.2199 19.7752 11.2211 19.1672 10.2801C18.162 10.181 17.1048 10.1272 16 10.1272C14.8952 10.1272 13.8376 10.181 12.832 10.2797C12.2236 11.2207 11.6356 12.2199 11.0816 13.2662C10.5408 14.288 10.0512 15.3223 9.614 16.3504C10.0512 17.3785 10.5404 18.4124 11.0812 19.4338C11.6352 20.4801 12.2228 21.4793 12.8308 22.4203C13.8368 22.5189 14.8948 22.5727 16 22.5727ZM23.0184 14.7556C23.4684 13.5515 23.8408 12.3692 24.1248 11.2384C23.1036 10.9264 21.9756 10.6686 20.7536 10.4797C21.1648 11.1584 21.5652 11.862 21.9504 12.5901C22.332 13.3097 22.6868 14.0333 23.0184 14.7556ZM8.9796 14.7561C9.3108 14.0338 9.666 13.3102 10.0468 12.5901C10.4324 11.862 10.8332 11.1589 11.2448 10.4802C10.0228 10.6686 8.8948 10.9269 7.8736 11.2389C8.1576 12.3696 8.53 13.5515 8.9796 14.7561ZM25.2752 21.0713C28.5056 19.8552 30.4 18.0683 30.4 16.35C30.4 14.6316 28.5056 12.8448 25.2752 11.6287C24.894 13.1422 24.3676 14.7325 23.7072 16.3495C24.3676 17.967 24.894 19.5574 25.2752 21.0713ZM6.724 21.0708C7.1048 19.5578 7.6308 17.9674 8.2912 16.3509C7.6308 14.7338 7.1044 13.143 6.7236 11.6296C3.4936 12.8457 1.6 14.6321 1.6 16.35C1.6 18.0683 3.494 19.8547 6.724 21.0708ZM20.7536 22.2202C21.9756 22.0318 23.1036 21.774 24.1248 21.4615C23.8404 20.3308 23.468 19.1484 23.0184 17.9439C22.6868 18.6662 22.3316 19.3898 21.9504 20.1098C21.5652 20.8379 21.1648 21.5415 20.7536 22.2202ZM11.2436 22.2198C10.8324 21.5411 10.432 20.8379 10.0464 20.1103C9.6656 19.3907 9.3108 18.6675 8.9796 17.9457C8.53 19.1493 8.158 20.3312 7.874 21.4615C8.8948 21.7731 10.0224 22.0309 11.2436 22.2198ZM9.7896 30.5747C11.2852 30.5747 13.182 29.4324 15.1304 27.5016C14.1252 26.3953 13.1284 25.112 12.1752 23.6848C10.518 23.4897 8.9744 23.1688 7.584 22.7443C7.1504 24.9214 7.0724 26.8451 7.4152 28.2683C7.6464 29.2284 8.0544 29.8982 8.6272 30.2596C8.9584 30.4689 9.35 30.5747 9.7896 30.5747ZM22.2108 30.5721C22.6504 30.5721 23.0412 30.4663 23.3736 30.2569C23.9456 29.8964 24.3524 29.2279 24.5832 28.2687C24.9264 26.8451 24.8484 24.9214 24.4148 22.7447C23.024 23.1692 21.48 23.4901 19.8224 23.6853C18.8704 25.112 17.874 26.3948 16.87 27.5011C18.8184 29.4302 20.7152 30.5716 22.2108 30.5721ZM16 26.5908C16.7428 25.7712 17.4852 24.8454 18.2088 23.8324C17.4884 23.8799 16.7852 23.9804 16.0332 23.9804C15.2808 23.9804 14.5104 23.8799 13.7896 23.8324C14.5136 24.8458 15.2568 25.7717 16 26.5908ZM9.6464 0.380645C8.9268 0.380645 8.4124 0.53088 7.8372 0.893132C6.8776 1.49807 6.2152 2.53371 5.8688 3.97161C5.4848 5.56597 5.518 7.6617 5.9632 10.0526C2.1676 11.5447 0 13.8275 0 16.35C0 18.8729 2.168 21.1553 5.9636 22.6474C5.5184 25.0383 5.4852 27.134 5.8696 28.7283C6.2156 30.1653 6.8776 31.201 7.838 31.8068C8.414 32.1695 9.106 32.3238 9.8252 32.3238C11.62 32.3238 13.7264 31.197 16.0004 29.0053C18.274 31.1948 20.416 32.3495 22.2104 32.35C22.93 32.35 23.5868 32.1664 24.1628 31.8037C25.1216 31.1997 25.7832 30.1653 26.1292 28.7292C26.5136 27.1344 26.4804 25.0387 26.0352 22.6483C29.8316 21.1557 32 18.8729 32 16.35C32 13.8271 29.832 11.5442 26.0356 10.0521C26.4812 7.66081 26.514 5.56508 26.1296 3.97072C25.7832 2.5346 25.1212 1.50029 24.162 0.896243C23.5864 0.533991 22.9296 0.349976 22.2104 0.349976C20.4164 0.349976 18.2748 1.50518 16.0008 3.69559C13.7264 1.5034 11.5744 0.379311 9.7792 0.379311L9.6464 0.380645ZM7.888 9.40584C7.7032 8.37287 7.5792 7.40479 7.5724 6.55583C7.5664 5.79132 7.6608 5.12593 7.8004 4.54633C8.0032 3.70537 8.3476 3.12665 8.824 2.82618C9.0944 2.6555 9.424 2.53994 9.7932 2.53994C11.0656 2.53994 12.74 3.50802 14.5464 5.22194C13.658 6.23224 12.7896 7.36389 11.96 8.59333C10.526 8.77112 9.1588 9.04359 7.888 9.40584ZM17.4552 5.22283C19.2612 3.51024 20.9396 2.57238 22.2104 2.57238C22.58 2.57238 22.9052 2.65906 23.176 2.82974C23.6516 3.12932 23.9956 3.7067 24.198 4.54588C24.5476 5.79843 24.5024 7.46346 24.1108 9.4054C22.84 9.04359 21.4732 8.77068 20.0396 8.59377C19.2104 7.36478 18.3428 6.23313 17.4552 5.22283ZM14.6692 8.37598C15.1076 7.79815 15.5528 7.25144 16.0004 6.74117C16.448 7.25144 16.8928 7.79815 17.3308 8.37598C16.8832 8.3582 16.438 8.34931 16 8.34931C15.562 8.34931 15.1172 8.3582 14.6692 8.37598ZM13.05 10.7051C14.012 10.6166 15.0032 10.5535 16 10.5535C16.9964 10.5535 17.9876 10.6166 18.9492 10.7051C19.522 11.6025 20.0676 12.539 20.5716 13.4915C21.0604 14.4151 21.5208 15.3757 21.9408 16.3495C21.5204 17.3238 21.06 18.2848 20.5712 19.2084C20.0668 20.1614 19.5216 21.0975 18.9488 21.9949C17.9876 22.0833 16.9964 22.202 16 22.202C15.0028 22.202 14.0112 22.0829 13.0488 21.9944C12.4756 21.0975 11.93 20.161 11.4256 19.208C10.9368 18.2848 10.4768 17.3243 10.0568 16.35C10.4768 15.3757 10.9372 14.4147 11.426 13.4911C11.9308 12.5385 12.4768 11.602 13.05 10.7051ZM22.9688 13.6938C22.7492 13.2413 22.524 12.7968 22.2956 12.3648C22.0676 11.9341 21.8288 11.5016 21.5816 11.0718C22.2912 11.206 22.9756 11.3664 23.6272 11.5518C23.4404 12.2479 23.22 12.9644 22.9688 13.6938ZM8.3712 11.5518C9.0228 11.3664 9.7072 11.206 10.4168 11.0718C10.1692 11.5016 9.9304 11.9341 9.7024 12.3643C9.474 12.7963 9.2488 13.2408 9.0292 13.6933C8.778 12.9648 8.558 12.2483 8.3712 11.5518ZM24.146 16.3495C24.712 14.9441 25.1808 13.5529 25.542 12.2043C28.3032 13.3239 30 14.8925 30 16.35C30 17.8074 28.3032 19.376 25.542 20.4957C25.1804 19.1467 24.712 17.755 24.146 16.3495ZM6.4568 20.4952C3.6964 19.3756 2 17.807 2 16.35C2 14.893 3.6964 13.3244 6.4564 12.2047C6.8176 13.5537 7.286 14.945 7.852 16.3504C7.2864 17.7554 6.818 19.1467 6.4568 20.4952ZM21.5812 21.6286C21.8284 21.1984 22.0676 20.7659 22.2952 20.3356C22.524 19.9036 22.7492 19.4587 22.9688 19.0062C23.22 19.7356 23.44 20.4525 23.6272 21.149C22.9752 21.3335 22.2908 21.4944 21.5812 21.6286ZM8.3716 21.1482C8.5584 20.4521 8.7784 19.736 9.0292 19.0075C9.2484 19.4596 9.4736 19.904 9.702 20.3356C9.9296 20.7659 10.1684 21.1979 10.416 21.6282C9.7068 21.4935 9.0228 21.3331 8.3716 21.1482ZM9.7896 30.1302C9.42 30.1302 9.0952 30.0436 8.8244 29.8729C8.3484 29.5724 8.004 28.9941 7.8016 28.1532C7.4692 26.8886 7.5068 25.2232 7.8888 23.2937C9.1592 23.6555 10.5256 23.9284 11.9588 24.1053C12.7888 25.3347 13.6572 26.4668 14.546 27.478C12.74 29.1924 11.0612 30.1307 9.7896 30.1302ZM20.0392 24.1062C21.4728 23.9288 22.8396 23.6564 24.1104 23.2946C24.5524 25.4014 24.5872 27.0806 24.1972 28.1536C23.9952 28.9932 23.6516 29.5706 23.1764 29.8698C22.9052 30.0404 22.5804 30.1271 22.2112 30.1271C20.9392 30.1271 19.26 29.1893 17.4544 27.4776C18.3424 26.4673 19.21 25.3356 20.0392 24.1062ZM16 25.9597C15.552 25.4494 15.1064 24.9022 14.668 24.324C15.116 24.3418 15.5616 24.3506 16 24.3506C16.438 24.3506 16.8832 24.3418 17.3308 24.324C16.8928 24.9022 16.4476 25.4494 16 25.9597Z" fill="#4E7AB5"/>
<path d="M18.6001 16.3499C18.6001 17.947 17.4373 19.2391 16.0001 19.2391C14.5629 19.2391 13.4001 17.947 13.4001 16.3499C13.4001 14.7529 14.5629 13.4608 16.0001 13.4608C17.4373 13.4608 18.6001 14.7529 18.6001 16.3499Z" fill="#8BB7F0"/>
<path d="M16.0002 19.4614C14.4566 19.4614 13.2002 18.0657 13.2002 16.35C13.2002 14.6343 14.4566 13.2386 16.0002 13.2386C17.5438 13.2386 18.8002 14.6343 18.8002 16.35C18.8002 18.0657 17.5438 19.4614 16.0002 19.4614ZM16.0002 13.6831C14.6766 13.6831 13.6002 14.8792 13.6002 16.35C13.6002 17.8208 14.6766 19.0169 16.0002 19.0169C17.3238 19.0169 18.4002 17.8208 18.4002 16.35C18.4002 14.8792 17.3238 13.6831 16.0002 13.6831Z" fill="#4E7AB5"/>
</svg>
