<svg width="14" height="14" viewBox="0 0 14 14" fill="none" xmlns="http://www.w3.org/2000/svg">
<path d="M1.73038 14C1.25142 14 0.843282 13.8313 0.505969 13.494C0.168656 13.1567 0 12.7486 0 12.2696V1.73038C0 1.25142 0.168656 0.843282 0.505969 0.50597C0.843282 0.168657 1.25142 0 1.73038 0H10.0424L14 3.9576V12.2696C14 12.7486 13.8313 13.1567 13.494 13.494C13.1567 13.8313 12.7486 14 12.2696 14H1.73038ZM1.73038 12.2696H12.2696V4.84553H9.15447V1.73038H1.73038V12.2696ZM3.147 10.7666H10.853V9.21359H3.147V10.7666ZM3.147 4.82279H7.14096V3.26521H3.147V4.82279ZM3.147 7.79697H10.853V6.2394H3.147V7.79697Z" fill="white"/>
</svg>
