<svg width="32" height="34" viewBox="0 0 32 34" fill="none" xmlns="http://www.w3.org/2000/svg">
<path fill-rule="evenodd" clip-rule="evenodd" d="M15.0762 0.231566C15.648 -0.076863 16.352 -0.076863 16.9229 0.231566C19.7482 1.7559 28.25 6.34428 31.0761 7.86862C31.6479 8.17623 31.9999 8.74614 31.9999 9.363C31.9999 12.4117 31.9999 21.5876 31.9999 24.6363C31.9999 25.2531 31.6479 25.823 31.0761 26.1315C28.2509 27.6558 19.749 32.2442 16.9229 33.7685C16.3511 34.077 15.6471 34.077 15.0762 33.7685C12.2509 32.2442 3.74904 27.6558 0.922945 26.1315C0.351999 25.823 0 25.254 0 24.6371C0 21.5884 0 12.4125 0 9.36381C0 8.74695 0.351999 8.17704 0.923787 7.86862C3.7482 6.34428 12.2518 1.7559 15.0762 0.231566Z" fill="#283593"/>
<path fill-rule="evenodd" clip-rule="evenodd" d="M0.255999 25.4223C0.0319998 25.1341 0 24.8605 0 24.4921C0 21.4613 0 12.3379 0 9.30627C0 8.69265 0.351157 8.12599 0.92126 7.81999C3.73641 6.30456 12.2096 1.74289 15.0248 0.226651C15.5949 -0.0801591 16.3671 -0.0736828 16.9372 0.233127C19.7524 1.74856 28.197 6.27137 31.0121 7.7868C31.2395 7.90984 31.413 8.05799 31.5679 8.25308L0.255999 25.4223Z" fill="#5C6BC0"/>
<path fill-rule="evenodd" clip-rule="evenodd" d="M15.9999 5.66663C22.5068 5.66663 27.7893 10.7448 27.7893 17C27.7893 23.2552 22.5068 28.3333 15.9999 28.3333C9.49296 28.3333 4.21045 23.2552 4.21045 17C4.21045 10.7448 9.49296 5.66663 15.9999 5.66663ZM15.9999 11.3333C19.2529 11.3333 21.8946 13.872 21.8946 17C21.8946 20.1272 19.2529 22.6666 15.9999 22.6666C12.7468 22.6666 10.1052 20.1272 10.1052 17C10.1052 13.872 12.746 11.3333 15.9999 11.3333Z" fill="white"/>
<path fill-rule="evenodd" clip-rule="evenodd" d="M31.5662 8.26111C32.0008 8.65211 31.9923 9.24144 31.9923 9.7053C31.9923 12.7774 31.9654 21.5154 31.9999 24.5876C32.0033 24.9082 31.893 25.2457 31.7279 25.4999L15.6572 16.9999L31.5662 8.26111Z" fill="#3949AB"/>
</svg>
