<svg width="32" height="33" viewBox="0 0 32 33" fill="none" xmlns="http://www.w3.org/2000/svg">
<path d="M32 0.926025H0L2.82353 29.5576L16 32.926L29.1765 29.5576L32 0.926025Z" fill="#E65100"/>
<path d="M16 3.45239V30.3156L26.5412 27.6208L28.8941 3.45239H16Z" fill="#FF6D00"/>
<path d="M16 17.7681V14.3997H24.0941L23.4353 24.0839L16 26.2734V22.7365L19.8588 21.5576L20.1412 17.7681H16ZM24.3765 11.0313L24.6588 7.66284H16V11.0313H24.3765Z" fill="white"/>
<path d="M16 22.7365V26.2734L8.56472 24.0839L8.18824 19.4523H11.953L12.1412 21.5576L16 22.7365ZM11.3882 11.0313H16V7.66284H7.4353L8.09413 17.7681H16V14.3997H11.6706L11.3882 11.0313Z" fill="#EEEEEE"/>
</svg>
