<svg width="100" height="41" viewBox="0 0 100 41" fill="none" xmlns="http://www.w3.org/2000/svg">
<path d="M34.8285 19.1493V30.7177C34.8285 30.8877 34.6955 31.0655 34.6955 31.0655C34.6955 31.0655 34.4739 31.1582 34.2302 31.1582H32.9339C32.5351 31.1582 32.1916 31.0732 31.9035 30.9032C31.6376 30.7177 31.5047 30.4859 31.5047 30.2077V19.1493C31.5047 18.8093 31.3385 18.5234 31.0061 18.2915C30.6737 18.0597 30.1752 17.9438 29.5104 17.9438H27.5826V30.2077C27.5826 30.4859 27.4386 30.7177 27.1505 30.9032C26.8625 31.0732 26.519 31.1582 26.1201 31.1582H24.8239C24.5801 31.1582 24.3253 31.0655 24.3253 31.0655C24.3253 31.0655 24.2256 30.8877 24.2256 30.7177V0.440459C24.2256 0.270447 24.3253 0.0927106 24.3253 0.0927106C24.3253 0.0927106 24.5801 -2.34848e-05 24.8239 -2.34848e-05H29.5769C31.416 -2.34848e-05 32.7788 0.332269 33.6651 0.996855C34.0418 1.29051 34.3299 1.63826 34.5293 2.0401C34.7288 2.42648 34.8285 2.82833 34.8285 3.24563V14.1417C34.8285 14.8218 34.6955 15.3936 34.4296 15.8573C34.1637 16.321 33.7205 16.6919 33.1001 16.9701C34.2523 17.4183 34.8285 18.1447 34.8285 19.1493ZM29.5104 2.06328H27.5826V15.9037H29.7098C30.3968 15.9037 30.8842 15.7105 31.1723 15.3241C31.3939 15.0304 31.5047 14.6131 31.5047 14.0722V3.26881C31.5047 2.92879 31.3385 2.64286 31.0061 2.41103C30.6737 2.1792 30.1752 2.06328 29.5104 2.06328Z" fill="#1F98D4"/>
<path d="M45.7395 0.53319L49.2627 30.7177C49.2848 30.9032 49.1962 31.0887 49.1962 31.0887C49.1962 31.0887 48.9746 31.1582 48.7309 31.1582H47.2019C46.8252 31.1582 46.5039 31.0809 46.238 30.9264C45.9943 30.7564 45.8613 30.5323 45.8392 30.2541L45.4071 25.687H41.4518L41.0197 30.2541C40.9975 30.5323 40.8646 30.7564 40.6208 30.9264C40.3771 31.0809 40.0669 31.1582 39.6902 31.1582H38.128C37.9064 31.1582 37.6959 31.1118 37.6959 31.1118C37.6959 31.1118 37.5962 30.9805 37.5962 30.8568V30.7177L41.1194 0.53319C41.1416 0.316814 41.2524 0.177715 41.4518 0.115893C41.6512 0.0386166 41.9393 -2.34848e-05 42.316 -2.34848e-05H44.5761C44.975 -2.34848e-05 45.252 0.0386166 45.4071 0.115893C45.5844 0.177715 45.6952 0.316814 45.7395 0.53319ZM45.2409 23.67L43.4461 4.12659L41.618 23.67H45.2409Z" fill="#1F98D4"/>
<path d="M52.0972 30.6945V0.440459C52.0972 0.270447 52.1969 0.0927106 52.1969 0.0927106C52.1969 0.0927106 52.4517 -2.34848e-05 52.6954 -2.34848e-05H54.025C54.4238 -2.34848e-05 54.7562 0.0927089 55.0221 0.278176C55.3102 0.448184 55.4542 0.672294 55.4542 0.950489V29.0949H59.1436C60.2072 29.0949 60.739 29.4967 60.739 30.3004V30.6714C60.739 30.9959 60.5507 31.1582 60.174 31.1582H52.6622C52.4185 31.1582 52.1969 31.0655 52.1969 31.0655C52.1969 31.0655 52.0972 30.88 52.0972 30.6945Z" fill="#1F98D4"/>
<path d="M68.8258 19.2189H66.898V30.2077C66.898 30.4859 66.754 30.7177 66.466 30.9032C66.2 31.0732 65.8677 31.1582 65.4688 31.1582H64.1393C63.8956 31.1582 63.6407 31.0655 63.6407 31.0655C63.6407 31.0655 63.541 30.8877 63.541 30.7177V0.440459C63.541 0.270447 63.6407 0.0927106 63.6407 0.0927106C63.6407 0.0927106 63.8956 -2.34848e-05 64.1393 -2.34848e-05H68.8923C70.5099 -2.34848e-05 71.784 0.30136 72.7147 0.904121C73.6675 1.50689 74.1439 2.28739 74.1439 3.24563V15.9732C74.1439 16.9314 73.6675 17.7119 72.7147 18.3147C71.7619 18.9175 70.4656 19.2189 68.8258 19.2189ZM66.898 2.06328V17.1555H69.0253C69.6235 17.1555 70.0667 17.0396 70.3548 16.8078C70.665 16.576 70.8201 16.29 70.8201 15.95V3.26881C70.8201 2.92879 70.6539 2.64286 70.3215 2.41103C69.9892 2.1792 69.4906 2.06328 68.8258 2.06328H66.898Z" fill="#1F98D4"/>
<path d="M87.8135 0.417276V30.7409C87.8135 30.8955 87.6806 31.0655 87.6806 31.0655C87.6806 31.0655 87.459 31.1582 87.2152 31.1582H85.9522C85.5312 31.1582 85.1766 31.0732 84.8886 30.9032C84.6227 30.7332 84.4897 30.4936 84.4897 30.1845V16.2978H80.6341V30.1845C80.6341 30.4936 80.4901 30.7332 80.202 30.9032C79.9361 31.0732 79.5927 31.1582 79.1717 31.1582H77.8754C77.6316 31.1582 77.3768 31.0655 77.3768 31.0655C77.3768 31.0655 77.2771 30.8955 77.2771 30.7409V0.417276C77.2771 0.262718 77.3768 0.0927106 77.3768 0.0927106C77.3768 0.0927106 77.6316 -2.34848e-05 77.8754 -2.34848e-05H79.2049C79.6038 -2.34848e-05 79.9361 0.0927089 80.202 0.278176C80.4901 0.448184 80.6341 0.672294 80.6341 0.950489V14.3272H84.4897V0.950489C84.4897 0.672294 84.6227 0.448184 84.8886 0.278176C85.1766 0.0927089 85.5201 -2.34848e-05 85.919 -2.34848e-05H87.2485C87.4922 -2.34848e-05 87.7138 0.0927106 87.7138 0.0927106C87.7138 0.0927106 87.8135 0.262718 87.8135 0.417276Z" fill="#1F98D4"/>
<path d="M7.61148 8.85611L7.57824 8.92566L2.92493 15.6024L7.57824 22.2792C7.57824 22.2792 7.58932 22.426 7.47852 22.4878C7.47852 22.4878 7.26802 22.5806 7.11291 22.5806H5.71692C5.31806 22.5806 4.99676 22.511 4.75302 22.3719C4.50927 22.2174 4.30985 22.0164 4.15474 21.7692L0 15.6024L4.15474 9.41251C4.30985 9.16522 4.50927 8.97203 4.75302 8.83293C4.99676 8.69383 5.31806 8.62428 5.71692 8.62428H7.11291C7.44529 8.62428 7.61148 8.70156 7.61148 8.85611Z" fill="#EA5313"/>
<path d="M10.5044 30.8568V30.7177L16.2878 0.904121C16.3543 0.656835 16.4983 0.448184 16.7199 0.278176C16.9415 0.0927089 17.2849 -2.34848e-05 17.7503 -2.34848e-05H19.1462C19.4565 -2.34848e-05 19.6116 0.115893 19.6116 0.347725V0.463641L13.9279 30.2541C13.8836 30.5323 13.7063 30.7564 13.3961 30.9264C13.108 31.0809 12.7646 31.1582 12.3657 31.1582H11.0362C10.8146 31.1582 10.6041 31.1118 10.6041 31.1118C10.6041 31.1118 10.5044 30.9805 10.5044 30.8568Z" fill="#EA5313"/>
<path d="M92.3884 22.3485L92.4217 22.2789L97.075 15.6022L92.4217 8.92542L92.4881 8.71676C92.5989 8.65494 92.7319 8.62403 92.887 8.62403H94.283C94.6818 8.62403 95.0031 8.70131 95.2469 8.85586C95.4906 8.99497 95.6901 9.18816 95.8452 9.43545L99.9999 15.6022L95.8452 21.7921C95.6901 22.0394 95.4906 22.2326 95.2469 22.3717C95.0031 22.5108 94.6818 22.5803 94.283 22.5803H92.887C92.5546 22.5803 92.3884 22.503 92.3884 22.3485Z" fill="#EA5313"/>
<path d="M12.3544 35.0779C12.7782 35.0779 13.1419 35.1767 13.4454 35.3742C13.7509 35.5693 13.9857 35.8681 14.1499 36.2706C14.3159 36.6731 14.399 37.1781 14.399 37.7855C14.399 38.393 14.3159 38.898 14.1499 39.3005C13.9857 39.703 13.7509 40.003 13.4454 40.2005C13.1419 40.3956 12.7782 40.4932 12.3544 40.4932H11V35.0779H12.3544ZM12.3058 39.9524C12.6551 39.9524 12.9443 39.882 13.1734 39.7413C13.4025 39.6005 13.5762 39.3709 13.6946 39.0523C13.8129 38.7338 13.8721 38.3115 13.8721 37.7855C13.8721 37.2571 13.8129 36.8348 13.6946 36.5188C13.5762 36.2002 13.4025 35.9706 13.1734 35.8298C12.9443 35.6891 12.6551 35.6187 12.3058 35.6187H11.4925V39.9524H12.3058Z" fill="white"/>
<path d="M16.6756 37.9411V39.9672H18.8089V40.4932H16.1831V35.0779H18.7631V35.6039H16.6756V37.4151H18.5169V37.9411H16.6756Z" fill="white"/>
<path d="M21.6499 40.5708C21.3864 40.5708 21.1497 40.5251 20.9397 40.4338C20.7316 40.3399 20.5579 40.2177 20.4186 40.0671C20.2792 39.9164 20.1752 39.751 20.1064 39.5707L20.3756 39.1485H20.4472C20.7068 39.7139 21.1077 39.9967 21.6499 39.9967C21.9649 39.9967 22.1987 39.9115 22.3514 39.7411C22.5061 39.5707 22.5834 39.3337 22.5834 39.0299C22.5834 38.8521 22.5576 38.7015 22.5061 38.578C22.4564 38.4546 22.3734 38.3496 22.2569 38.2632C22.1405 38.1743 21.982 38.0978 21.7816 38.0336L21.2919 37.878C20.9273 37.7644 20.6581 37.5841 20.4844 37.3372C20.3126 37.0878 20.2267 36.773 20.2267 36.3927C20.2267 36.1235 20.2802 35.884 20.3871 35.6741C20.494 35.4617 20.6505 35.2963 20.8567 35.1778C21.0629 35.0592 21.3091 35 21.5955 35C21.9105 35 22.1758 35.058 22.3915 35.1741C22.6092 35.2877 22.7829 35.4593 22.9127 35.6889L22.6722 36.1075H22.6006C22.4803 35.9173 22.3381 35.7778 22.1739 35.6889C22.0097 35.6 21.8169 35.5556 21.5955 35.5556C21.3053 35.5556 21.0858 35.6284 20.9369 35.7741C20.7899 35.9198 20.7164 36.1211 20.7164 36.3779C20.7164 36.6223 20.7708 36.8174 20.8796 36.9631C20.9884 37.1063 21.1717 37.2174 21.4294 37.2965L21.9305 37.452C22.3371 37.5755 22.6311 37.7656 22.8125 38.0224C22.9957 38.2768 23.0874 38.6027 23.0874 39.0003C23.0874 39.3065 23.0339 39.5781 22.927 39.8152C22.822 40.0498 22.6617 40.235 22.4459 40.3708C22.2302 40.5041 21.9649 40.5708 21.6499 40.5708Z" fill="white"/>
<path d="M25.2662 37.9411V39.9672H27.3995V40.4932H24.7737V35.0779H27.3537V35.6039H25.2662V37.4151H27.1074V37.9411H25.2662Z" fill="white"/>
<path d="M29.5243 40.4932H29.0432V35.0779H29.6474L31.6891 39.2153L31.7607 39.2005V35.0779H32.2389V40.4932H31.7235L29.5959 36.0669L29.5243 36.0817V40.4932Z" fill="white"/>
<path d="M35.8863 40.4932H35.2392L33.7874 35.0779H34.3114L35.5398 39.6968H35.6114L36.8255 35.0779H37.341L35.8863 40.4932Z" fill="white"/>
<path d="M40.5486 40.5708C40.1859 40.5708 39.8633 40.4696 39.5808 40.2671C39.2982 40.0646 39.0758 39.7559 38.9136 39.3411C38.7513 38.9238 38.6702 38.4052 38.6702 37.7854C38.6702 37.1656 38.7513 36.6483 38.9136 36.2334C39.0758 35.8161 39.2982 35.5062 39.5808 35.3037C39.8633 35.1012 40.1859 35 40.5486 35C40.9113 35 41.234 35.1012 41.5165 35.3037C41.799 35.5062 42.0214 35.8161 42.1837 36.2334C42.346 36.6483 42.4271 37.1656 42.4271 37.7854C42.4271 38.4052 42.346 38.9238 42.1837 39.3411C42.0214 39.7559 41.799 40.0646 41.5165 40.2671C41.234 40.4696 40.9113 40.5708 40.5486 40.5708ZM40.5486 39.9819C40.9839 39.9819 41.318 39.8065 41.5509 39.4559C41.7838 39.1028 41.9002 38.5459 41.9002 37.7854C41.9002 37.0248 41.7838 36.4692 41.5509 36.1186C41.318 35.7655 40.9839 35.5889 40.5486 35.5889C39.6476 35.5889 39.1971 36.3211 39.1971 37.7854C39.1971 39.2497 39.6476 39.9819 40.5486 39.9819Z" fill="white"/>
<path d="M44.7035 35.0779V39.9672H46.7194V40.4932H44.2109V35.0779H44.7035Z" fill="white"/>
<path d="M49.9093 40.4932H49.2621L47.8103 35.0779H48.3343L49.5628 39.6968H49.6344L50.8485 35.0779H51.3639L49.9093 40.4932Z" fill="white"/>
<path d="M53.3995 37.9411V39.9672H55.5328V40.4932H52.907V35.0779H55.487V35.6039H53.3995V37.4151H55.2407V37.9411H53.3995Z" fill="white"/>
<path d="M58.5317 35.0779C58.9555 35.0779 59.3192 35.1767 59.6227 35.3742C59.9281 35.5693 60.1629 35.8681 60.3271 36.2706C60.4932 36.6731 60.5762 37.1781 60.5762 37.7855C60.5762 38.393 60.4932 38.898 60.3271 39.3005C60.1629 39.703 59.9281 40.003 59.6227 40.2005C59.3192 40.3956 58.9555 40.4932 58.5317 40.4932H57.1772V35.0779H58.5317ZM58.483 39.9524C58.8324 39.9524 59.1216 39.882 59.3506 39.7413C59.5797 39.6005 59.7535 39.3709 59.8718 39.0523C59.9902 38.7338 60.0493 38.3115 60.0493 37.7855C60.0493 37.2571 59.9902 36.8348 59.8718 36.5188C59.7535 36.2002 59.5797 35.9706 59.3506 35.8298C59.1216 35.6891 58.8324 35.6187 58.483 35.6187H57.6698V39.9524H58.483Z" fill="white"/>
<path d="M64.0235 40.5708C63.6608 40.5708 63.3381 40.4696 63.0556 40.2671C62.7731 40.0646 62.5507 39.7559 62.3884 39.3411C62.2262 38.9238 62.145 38.4052 62.145 37.7854C62.145 37.1656 62.2262 36.6483 62.3884 36.2334C62.5507 35.8161 62.7731 35.5062 63.0556 35.3037C63.3381 35.1012 63.6608 35 64.0235 35C64.3862 35 64.7088 35.1012 64.9913 35.3037C65.2739 35.5062 65.4963 35.8161 65.6585 36.2334C65.8208 36.6483 65.9019 37.1656 65.9019 37.7854C65.9019 38.4052 65.8208 38.9238 65.6585 39.3411C65.4963 39.7559 65.2739 40.0646 64.9913 40.2671C64.7088 40.4696 64.3862 40.5708 64.0235 40.5708ZM64.0235 39.9819C64.4587 39.9819 64.7928 39.8065 65.0257 39.4559C65.2586 39.1028 65.3751 38.5459 65.3751 37.7854C65.3751 37.0248 65.2586 36.4692 65.0257 36.1186C64.7928 35.7655 64.4587 35.5889 64.0235 35.5889C63.1224 35.5889 62.6719 36.3211 62.6719 37.7854C62.6719 39.2497 63.1224 39.9819 64.0235 39.9819Z" fill="white"/>
<path d="M67.686 40.4932V35.0779H69.2066C69.4872 35.0779 69.7229 35.1384 69.9138 35.2594C70.1047 35.3779 70.2479 35.5471 70.3434 35.7669C70.4388 35.9842 70.4865 36.2422 70.4865 36.541C70.4865 36.8768 70.4216 37.1546 70.2918 37.3744C70.162 37.5917 69.9597 37.7547 69.6848 37.8633V37.9411C69.8203 38.0102 69.931 38.1189 70.0169 38.2671C70.1028 38.4152 70.1821 38.6362 70.2546 38.9301L70.6412 40.4932H70.1343L69.7163 38.8375C69.6666 38.6424 69.6094 38.4893 69.5445 38.3782C69.4795 38.2671 69.3975 38.1868 69.2982 38.1374C69.1989 38.088 69.0729 38.0633 68.9202 38.0633H68.1786V40.4932H67.686ZM69.1951 37.5226C69.4566 37.5226 69.6514 37.4448 69.7793 37.2892C69.9072 37.1312 69.9711 36.8916 69.9711 36.5706C69.9711 36.2496 69.9072 36.0113 69.7793 35.8558C69.6514 35.6977 69.4566 35.6187 69.1951 35.6187H68.1786V37.5226H69.1951Z" fill="white"/>
<path d="M75.6636 40.4932H75.0193L74.0601 35.0779H74.5469L75.3343 39.5561H75.4059L76.3451 35.0779H76.8004L77.7397 39.5561H77.8113L78.6016 35.0779H79.0741L78.1177 40.4932H77.4705L76.5971 36.3928H76.537L75.6636 40.4932Z" fill="white"/>
<path d="M81.1588 37.9411V39.9672H83.2921V40.4932H80.6663V35.0779H83.2463V35.6039H81.1588V37.4151H83V37.9411H81.1588Z" fill="white"/>
<path d="M84.936 40.4932V35.0779H86.5224C86.7801 35.0779 86.9987 35.131 87.1782 35.2372C87.3576 35.3434 87.4922 35.4952 87.5819 35.6928C87.6736 35.8879 87.7194 36.1212 87.7194 36.3928C87.7194 36.6274 87.6697 36.8398 87.5705 37.0299C87.4731 37.2201 87.3328 37.3682 87.1495 37.4744V37.5522C87.4282 37.6411 87.6392 37.8028 87.7824 38.0374C87.9274 38.272 88 38.5671 88 38.9227C88 39.4264 87.8855 39.8141 87.6564 40.0857C87.4292 40.3574 87.0913 40.4932 86.6427 40.4932H84.936ZM86.4995 37.3522C86.7305 37.3522 86.9099 37.2744 87.0379 37.1188C87.1658 36.9608 87.2297 36.7447 87.2297 36.4706C87.2297 36.1817 87.1677 35.9656 87.0436 35.8224C86.9214 35.6767 86.74 35.6039 86.4995 35.6039H85.4286V37.3522H86.4995ZM86.6055 39.9672C87.2011 39.9672 87.4989 39.619 87.4989 38.9227C87.4989 38.2263 87.2011 37.8781 86.6055 37.8781H85.4286V39.9672H86.6055Z" fill="white"/>
</svg>
